{
  "asset": {
    "version": "2.0",
    "generator": "THREE.GLTFExporter"
  },
  "scenes": [
    {
      "name": "Scene",
      "nodes": [
        10
      ]
    }
  ],
  "scene": 0,
  "nodes": [
    {
      "name": "Node-Mesh",
      "mesh": 0
    },
    {
      "name": "Node-Mesh_1",
      "mesh": 1
    },
    {
      "name": "Node-Mesh_2",
      "mesh": 2
    },
    {
      "name": "Node-Mesh_3",
      "mesh": 3
    },
    {
      "name": "Node-Mesh_4",
      "mesh": 4
    },
    {
      "name": "Node-Mesh_5",
      "mesh": 5
    },
    {
      "name": "Node-Mesh_6",
      "mesh": 6
    },
    {
      "name": "Node-Mesh_7",
      "mesh": 7
    },
    {
      "name": "Node-Mesh_8",
      "mesh": 8
    },
    {
      "name": "Node",
      "extras": {
        "name": "Node"
      },
      "children": [
        0,
        1,
        2,
        3,
        4,
        5,
        6,
        7,
        8
      ]
    },
    {
      "name": "Small House.glb",
      "children": [
        9
      ]
    }
  ],
  "bufferViews": [
    {
      "buffer": 0,
      "byteOffset": 0,
      "byteLength": 2664,
      "target": 34962,
      "byteStride": 12
    },
    {
      "buffer": 0,
      "byteOffset": 2664,
      "byteLength": 2664,
      "target": 34962,
      "byteStride": 12
    },
    {
      "buffer": 0,
      "byteOffset": 5328,
      "byteLength": 660,
      "target": 34963
    },
    {
      "buffer": 0,
      "byteOffset": 5988,
      "byteLength": 960,
      "target": 34962,
      "byteStride": 12
    },
    {
      "buffer": 0,
      "byteOffset": 6948,
      "byteLength": 960,
      "target": 34962,
      "byteStride": 12
    },
    {
      "buffer": 0,
      "byteOffset": 7908,
      "byteLength": 216,
      "target": 34963
    },
    {
      "buffer": 0,
      "byteOffset": 8124,
      "byteLength": 288,
      "target": 34962,
      "byteStride": 12
    },
    {
      "buffer": 0,
      "byteOffset": 8412,
      "byteLength": 288,
      "target": 34962,
      "byteStride": 12
    },
    {
      "buffer": 0,
      "byteOffset": 8700,
      "byteLength": 72,
      "target": 34963
    },
    {
      "buffer": 0,
      "byteOffset": 8772,
      "byteLength": 288,
      "target": 34962,
      "byteStride": 12
    },
    {
      "buffer": 0,
      "byteOffset": 9060,
      "byteLength": 288,
      "target": 34962,
      "byteStride": 12
    },
    {
      "buffer": 0,
      "byteOffset": 9348,
      "byteLength": 72,
      "target": 34963
    },
    {
      "buffer": 0,
      "byteOffset": 9420,
      "byteLength": 41136,
      "target": 34962,
      "byteStride": 12
    },
    {
      "buffer": 0,
      "byteOffset": 50556,
      "byteLength": 41136,
      "target": 34962,
      "byteStride": 12
    },
    {
      "buffer": 0,
      "byteOffset": 91692,
      "byteLength": 9852,
      "target": 34963
    },
    {
      "buffer": 0,
      "byteOffset": 101544,
      "byteLength": 192,
      "target": 34962,
      "byteStride": 12
    },
    {
      "buffer": 0,
      "byteOffset": 101736,
      "byteLength": 192,
      "target": 34962,
      "byteStride": 12
    },
    {
      "buffer": 0,
      "byteOffset": 101928,
      "byteLength": 48,
      "target": 34963
    },
    {
      "buffer": 0,
      "byteOffset": 101976,
      "byteLength": 48960,
      "target": 34962,
      "byteStride": 12
    },
    {
      "buffer": 0,
      "byteOffset": 150936,
      "byteLength": 48960,
      "target": 34962,
      "byteStride": 12
    },
    {
      "buffer": 0,
      "byteOffset": 199896,
      "byteLength": 11520,
      "target": 34963
    },
    {
      "buffer": 0,
      "byteOffset": 211416,
      "byteLength": 1248,
      "target": 34962,
      "byteStride": 12
    },
    {
      "buffer": 0,
      "byteOffset": 212664,
      "byteLength": 1248,
      "target": 34962,
      "byteStride": 12
    },
    {
      "buffer": 0,
      "byteOffset": 213912,
      "byteLength": 300,
      "target": 34963
    },
    {
      "buffer": 0,
      "byteOffset": 214212,
      "byteLength": 240,
      "target": 34962,
      "byteStride": 12
    },
    {
      "buffer": 0,
      "byteOffset": 214452,
      "byteLength": 240,
      "target": 34962,
      "byteStride": 12
    },
    {
      "buffer": 0,
      "byteOffset": 214692,
      "byteLength": 60,
      "target": 34963
    }
  ],
  "buffers": [
    {
      "byteLength": 214752,
      "uri": "data:application/octet-stream;base64,"
    }
  ],
  "accessors": [
    {
      "bufferView": 0,
      "componentType": 5126,
      "count": 222,
      "max": [
        0.46138298511505127,
        0.39691078662872314,
        0.41879698634147644
      ],
      "min": [
        -0.32361701130867004,
        -0.5330893993377686,
        -0.34120309352874756
      ],
      "type": "VEC3"
    },
    {
      "bufferView": 1,
      "componentType": 5126,
      "count": 222,
      "max": [
        1,
        1,
        1
      ],
      "min": [
        -1,
        -1,
        -1
      ],
      "type": "VEC3"
    },
    {
      "bufferView": 2,
      "componentType": 5123,
      "count": 330,
      "max": [
        221
      ],
      "min": [
        0
      ],
      "type": "SCALAR"
    },
    {
      "bufferView": 3,
      "componentType": 5126,
      "count": 80,
      "max": [
        0.5011550784111023,
        0.42530760169029236,
        0.43879780173301697
      ],
      "min": [
        -0.3692069947719574,
        0.05635548010468483,
        -0.3634082078933716
      ],
      "type": "VEC3"
    },
    {
      "bufferView": 4,
      "componentType": 5126,
      "count": 80,
      "max": [
        1,
        0.7848826050758362,
        1
      ],
      "min": [
        -1,
        -0.7848824262619019,
        -1
      ],
      "type": "VEC3"
    },
    {
      "bufferView": 5,
      "componentType": 5123,
      "count": 108,
      "max": [
        79
      ],
      "min": [
        0
      ],
      "type": "SCALAR"
    },
    {
      "bufferView": 6,
      "componentType": 5126,
      "count": 24,
      "max": [
        0.17806699872016907,
        -0.10808929800987244,
        -0.3412024974822998
      ],
      "min": [
        -0.051933228969573975,
        -0.5280895829200745,
        -0.36120280623435974
      ],
      "type": "VEC3"
    },
    {
      "bufferView": 7,
      "componentType": 5126,
      "count": 24,
      "max": [
        1,
        1,
        1
      ],
      "min": [
        -1,
        -1,
        -1
      ],
      "type": "VEC3"
    },
    {
      "bufferView": 8,
      "componentType": 5123,
      "count": 36,
      "max": [
        23
      ],
      "min": [
        0
      ],
      "type": "SCALAR"
    },
    {
      "bufferView": 9,
      "componentType": 5126,
      "count": 24,
      "max": [
        -0.001933127990923822,
        -0.30308958888053894,
        -0.3212026059627533
      ],
      "min": [
        -0.031933099031448364,
        -0.33308959007263184,
        -0.3812026083469391
      ],
      "type": "VEC3"
    },
    {
      "bufferView": 10,
      "componentType": 5126,
      "count": 24,
      "max": [
        1,
        1,
        1
      ],
      "min": [
        -1,
        -1,
        -1
      ],
      "type": "VEC3"
    },
    {
      "bufferView": 11,
      "componentType": 5123,
      "count": 36,
      "max": [
        23
      ],
      "min": [
        0
      ],
      "type": "SCALAR"
    },
    {
      "bufferView": 12,
      "componentType": 5126,
      "count": 3428,
      "max": [
        0.5138828754425049,
        0.6614022850990295,
        0.4487971067428589
      ],
      "min": [
        -0.37611690163612366,
        -0.5630894899368286,
        -0.3812030851840973
      ],
      "type": "VEC3"
    },
    {
      "bufferView": 13,
      "componentType": 5126,
      "count": 3428,
      "max": [
        1,
        1,
        1
      ],
      "min": [
        -1,
        -1,
        -1
      ],
      "type": "VEC3"
    },
    {
      "bufferView": 14,
      "componentType": 5123,
      "count": 4926,
      "max": [
        3427
      ],
      "min": [
        0
      ],
      "type": "SCALAR"
    },
    {
      "bufferView": 15,
      "componentType": 5126,
      "count": 16,
      "max": [
        -0.09923747181892395,
        0.41300180554389954,
        0.23925960063934326
      ],
      "min": [
        -0.21852119266986847,
        0.2944943904876709,
        0.11997590214014053
      ],
      "type": "VEC3"
    },
    {
      "bufferView": 16,
      "componentType": 5126,
      "count": 16,
      "max": [
        1,
        1,
        3.9233898974089243e-7
      ],
      "min": [
        -1,
        -6.596899737587592e-8,
        -1
      ],
      "type": "VEC3"
    },
    {
      "bufferView": 17,
      "componentType": 5123,
      "count": 24,
      "max": [
        15
      ],
      "min": [
        0
      ],
      "type": "SCALAR"
    },
    {
      "bufferView": 18,
      "componentType": 5126,
      "count": 4080,
      "max": [
        -0.12193969637155533,
        0.6551826000213623,
        0.24611610174179077
      ],
      "min": [
        -0.30123740434646606,
        0.41401100158691406,
        0.11788839846849442
      ],
      "type": "VEC3"
    },
    {
      "bufferView": 19,
      "componentType": 5126,
      "count": 4080,
      "max": [
        0.9995939135551453,
        0.9993104934692383,
        0.9991847276687622
      ],
      "min": [
        -0.9995939135551453,
        -0.9993104934692383,
        -0.9991847276687622
      ],
      "type": "VEC3"
    },
    {
      "bufferView": 20,
      "componentType": 5123,
      "count": 5760,
      "max": [
        4079
      ],
      "min": [
        0
      ],
      "type": "SCALAR"
    },
    {
      "bufferView": 21,
      "componentType": 5126,
      "count": 104,
      "max": [
        0.46138298511505127,
        0.24826550483703613,
        0.29067209362983704
      ],
      "min": [
        -0.32361701130867004,
        -0.3207296133041382,
        -0.3493877947330475
      ],
      "type": "VEC3"
    },
    {
      "bufferView": 22,
      "componentType": 5126,
      "count": 104,
      "max": [
        1,
        1,
        1
      ],
      "min": [
        -1,
        -1,
        -1
      ],
      "type": "VEC3"
    },
    {
      "bufferView": 23,
      "componentType": 5123,
      "count": 150,
      "max": [
        103
      ],
      "min": [
        0
      ],
      "type": "SCALAR"
    },
    {
      "bufferView": 24,
      "componentType": 5126,
      "count": 20,
      "max": [
        0.45263299345970154,
        0.24826550483703613,
        0.2906720042228699
      ],
      "min": [
        -0.3148669898509979,
        -0.3207296133041382,
        -0.344351589679718
      ],
      "type": "VEC3"
    },
    {
      "bufferView": 25,
      "componentType": 5126,
      "count": 20,
      "max": [
        1,
        1.4901159772762185e-7,
        0.9993855357170105
      ],
      "min": [
        -1,
        -0.03483109548687935,
        -2.980231954552437e-7
      ],
      "type": "VEC3"
    },
    {
      "bufferView": 26,
      "componentType": 5123,
      "count": 30,
      "max": [
        19
      ],
      "min": [
        0
      ],
      "type": "SCALAR"
    }
  ],
  "materials": [
    {
      "pbrMetallicRoughness": {
        "metallicFactor": 0,
        "roughnessFactor": 1
      },
      "name": "mat21"
    },
    {
      "pbrMetallicRoughness": {
        "baseColorFactor": [
          0.91,
          0.05,
          0.03,
          1
        ],
        "metallicFactor": 0,
        "roughnessFactor": 1
      },
      "name": "mat8"
    },
    {
      "pbrMetallicRoughness": {
        "baseColorFactor": [
          0.74,
          0.33,
          0.06,
          1
        ],
        "metallicFactor": 0,
        "roughnessFactor": 1
      },
      "name": "mat19"
    },
    {
      "pbrMetallicRoughness": {
        "baseColorFactor": [
          1,
          0.61,
          0.25,
          1
        ],
        "metallicFactor": 0,
        "roughnessFactor": 1
      },
      "name": "mat18"
    },
    {
      "pbrMetallicRoughness": {
        "baseColorFactor": [
          0.63,
          0.7,
          0.72,
          1
        ],
        "metallicFactor": 0,
        "roughnessFactor": 1
      },
      "name": "mat15"
    },
    {
      "pbrMetallicRoughness": {
        "baseColorFactor": [
          0.06,
          0.1,
          0.13,
          1
        ],
        "metallicFactor": 0,
        "roughnessFactor": 1
      },
      "name": "mat17"
    },
    {
      "pbrMetallicRoughness": {
        "baseColorFactor": [
          0.35,
          0.35,
          0.35,
          1
        ],
        "metallicFactor": 0,
        "roughnessFactor": 1
      },
      "name": "mat22"
    },
    {
      "pbrMetallicRoughness": {
        "baseColorFactor": [
          0.83,
          0.89,
          0.87,
          0.4
        ],
        "metallicFactor": 0,
        "roughnessFactor": 0.7
      },
      "alphaMode": "BLEND",
      "doubleSided": true,
      "name": "mat25"
    },
    {
      "pbrMetallicRoughness": {
        "baseColorFactor": [
          0.22,
          0.74,
          0.83,
          1
        ],
        "metallicFactor": 0,
        "roughnessFactor": 1
      },
      "name": "mat3"
    }
  ],
  "meshes": [
    {
      "primitives": [
        {
          "mode": 4,
          "attributes": {
            "POSITION": 0,
            "NORMAL": 1
          },
          "indices": 2,
          "material": 0
        }
      ]
    },
    {
      "primitives": [
        {
          "mode": 4,
          "attributes": {
            "POSITION": 3,
            "NORMAL": 4
          },
          "indices": 5,
          "material": 1
        }
      ]
    },
    {
      "primitives": [
        {
          "mode": 4,
          "attributes": {
            "POSITION": 6,
            "NORMAL": 7
          },
          "indices": 8,
          "material": 2
        }
      ]
    },
    {
      "primitives": [
        {
          "mode": 4,
          "attributes": {
            "POSITION": 9,
            "NORMAL": 10
          },
          "indices": 11,
          "material": 3
        }
      ]
    },
    {
      "primitives": [
        {
          "mode": 4,
          "attributes": {
            "POSITION": 12,
            "NORMAL": 13
          },
          "indices": 14,
          "material": 4
        }
      ]
    },
    {
      "primitives": [
        {
          "mode": 4,
          "attributes": {
            "POSITION": 15,
            "NORMAL": 16
          },
          "indices": 17,
          "material": 5
        }
      ]
    },
    {
      "primitives": [
        {
          "mode": 4,
          "attributes": {
            "POSITION": 18,
            "NORMAL": 19
          },
          "indices": 20,
          "material": 6
        }
      ]
    },
    {
      "primitives": [
        {
          "mode": 4,
          "attributes": {
            "POSITION": 21,
            "NORMAL": 22
          },
          "indices": 23,
          "material": 7
        }
      ]
    },
    {
      "primitives": [
        {
          "mode": 4,
          "attributes": {
            "POSITION": 24,
            "NORMAL": 25
          },
          "indices": 26,
          "material": 8
        }
      ]
    }
  ]
}